# xmcd
#
# Track frame offsets: 
#        150
#        16012
#        29200
#        49012
#        62100
#        74775
#        86287
#        97037
#        115000
#        125412
#        138662
#        152325
#        166350
#        181037
#        195600
#        209175
#        222312
#        234112
#
# Disc length: 3300 seconds
#
# Revision: 1
# Processed by: cddbd v1.5.2PL0 Copyright (c) Steve Scherf et al.
# Submitted via: ExactAudioCopy v1.0b3
#
DISCID=000ce212
DTITLE=Various Artist - Cowboy Classics
DYEAR=1900
DGENRE=Country
TTITLE0=Eddy Arnold - The Ballad of Jesse James
TTITLE1=Jonny Cash - The Shifting, Whispering Sands
TTITLE2=Marty Robbins - El Paso
TTITLE3=Tennessee Ernie Ford - The Ballad of Davey Crockett
TTITLE4=Walter Brennan - Old Rivers
TTITLE5=Tennessee Ernie Ford - River of No Return
TTITLE6=Sons Of The Pioneers - Ghost Riders in the Sky
TTITLE7=Jonny Cash - Sweet Betsy From Pike
TTITLE8=Tex Ritter - Billy the Kid
TTITLE9=Roy Rogers - Along the Navajo Trail
TTITLE10=Gene Autry - Twilight on the Trail
TTITLE11=Sons Of The Pioneers - When It's Springtime in the Rockies
TTITLE12=Riders In The Sky - Along the Santa Fe Trail
TTITLE13=Rex Allen - The Trail of the Lonesome Pine
TTITLE14=Rex Allen - The Last Roundup
TTITLE15=Sons Of The Pioneers - Empty Saddles
TTITLE16=Gene Autry - There's a Gold Mine in the Sky
TTITLE17=Tex Ritter - Bury Me Not On the Lone Prairie
EXTD=
EXTT0=
EXTT1=
EXTT2=
EXTT3=
EXTT4=
EXTT5=
EXTT6=
EXTT7=
EXTT8=
EXTT9=
EXTT10=
EXTT11=
EXTT12=
EXTT13=
EXTT14=
EXTT15=
EXTT16=
EXTT17=
PLAYORDER=
